LG_Sit_Stand_Walk05																		
version=1																		
nRows=56																		
nColumns=19																		
inDegrees=yes																		
endheader																		
time	ground_force2_vx	ground_force2_vy	ground_force2_vz	ground_force2_px	ground_force2_py	ground_force2_pz	ground_torque2_x	ground_torque2_y	ground_torque2_z	ground_force1_vx	ground_force1_vy	ground_force1_vz	ground_force1_px	ground_force1_py	ground_force1_pz	ground_torque1_x	ground_torque1_y	ground_torque1_z
1.59	-1.404255	86.292465	2.281483	0.204406	0	-0.317846	0.00E+00	0.694648	0	0	0	0	-0.13	0	0.305	0	0	0
1.591	-1.716379	86.810104	2.360014	0.205486	0	-0.325376	2.00E-06	0.706214	0	0	0	0	-0.13	0	0.305	0	0	0
1.592	-1.404255	86.810104	2.438225	0.204406	0	-0.325535	1.00E-06	0.755688	0.00E+00	0	0	0	-0.13	0	0.305	0	0	0
1.593	-1.402809	86.810104	2.516674	0.204316	0	-0.325535	1.00E-06	0.869624	0	0	0	0	-0.13	0	0.305	0	0	0
1.594	-1.402809	86.973251	2.516674	0.202983	0	-0.329257	1.00E-06	0.869624	0	0	0	0	-0.13	0	0.305	0	0	0
1.595	-1.169979	86.979828	2.438345	0.204316	0	-0.325436	2.00E-06	0.786275	1.00E-06	0	0	0	-0.13	0	0.305	0	0	0
1.596	-1.403532	86.973251	2.438263	0.205461	0	-0.326998	2.00E-06	0.732125	1.00E-06	0	0	0	-0.13	0	0.305	0	0	0
1.597	-1.403532	85.952606	2.438263	0.205747	0	-0.326998	0	0.731853	1.00E-06	0	0	0	-0.13	0	0.305	0	0	0
1.598	-1.793509	85.946465	2.281643	0.206012	0	-0.329053	0	0.694389	1.00E-06	0	0	0	-0.13	0	0.305	0	0	0
1.599	-1.793509	85.952606	2.281643	0.206041	0	-0.330534	1.00E-06	0.605941	1.00E-06	0	0	0	-0.13	0	0.305	0	0	0
1.6	-2.260614	86.802734	2.438225	0.206012	0	-0.32988	2.00E-06	0.605941	1.00E-06	0	0	0	-0.13	0	0.305	0	0	0
1.601	-1.947046	86.802734	2.751747	0.205443	0	-0.330208	2.00E-06	0.612967	0.00E+00	0	0	0	-0.13	0	0.305	0	0	0
1.602	-2.421368	86.631882	2.751787	0.20438	0	-0.32988	2.00E-06	0.654488	1.00E-06	0	0	0	-0.13	0	0.305	0	0	0
1.603	-2.421368	86.631882	2.751787	0.20438	0	-0.330208	2.00E-06	0.70079	1.00E-06	0	0	0	-0.13	0	0.305	0	0	0
1.604	-2.421368	86.631882	2.751787	0.20438	0	-0.328991	2.00E-06	0.756865	1.00E-06	0	0	0	-0.13	0	0.305	0	0	0
1.605	-1.871361	87.145668	2.124903	0.20471	0	-0.329552	2.00E-06	0.70079	1.00E-06	0	0	0	-0.13	0	0.305	0	0	0
1.606	-1.871361	86.116173	2.124903	0.201345	0	-0.329294	2.00E-06	0.757073	1.00E-06	0	0	0	-0.13	0	0.305	0	0	0
1.607	-2.186371	86.802399	2.124903	0.202361	0	-0.329294	0.00E+00	0.768259	0	0	0	0	-0.13	0	0.305	0	0	0
1.608	-2.186371	86.802399	2.516434	0.202361	0	-0.329294	2.00E-06	0.768259	0	0	0	0	-0.13	0	0.305	0	0	0
1.609	-2.109241	86.802399	2.595045	0.202361	0	-0.330654	1.00E-06	0.768259	0	0	0	0	-0.13	0	0.305	0	0	0
1.61	-1.948488	86.621468	2.516434	0.202177	0	-0.330654	2.00E-06	0.714707	0	0	0	0	-0.13	0	0.305	0	0	0
1.611	-1.948488	86.112701	2.359894	0.202177	0	-0.330551	1.00E-06	0.807529	0	0	0	0	-0.13	0	0.305	0	0	0
1.612	-1.948488	85.256378	2.359894	0.202338	0	-0.330082	2.00E-06	0.668915	1.00E-06	0	0	0	-0.13	0	0.305	0	0	0
1.613	-1.948488	84.72525	2.359774	0.203799	0	-0.330551	1.00E-06	0.721973	1.00E-06	0	0	0	-0.13	0	0.305	0	0	0
1.614	-2.342073	84.72525	2.673536	0.203799	0	-0.330082	2.00E-06	0.668915	0	0	0	0	-0.13	0	0.305	0	0	0
1.615	-2.104191	84.046761	2.751707	0.204127	0	-0.329488	1.00E-06	0.667748	0	0	0	0	-0.13	0	0.305	0	0	0
1.616	-2.104191	85.084778	2.751707	0.20448	0	-0.324169	1.00E-06	0.667748	1.00E-06	0	0	0	-0.13	0	0.305	0	0	0
1.617	-1.637808	84.046761	2.595005	0.20448	0	-0.326476	1.00E-06	0.695479	1.00E-06	0	0	0	-0.13	0	0.305	0	0	0
1.618	-1.637808	84.565575	2.595005	0.20351	0	-0.326476	1.00E-06	0.695479	1.00E-06	0	0	0	-0.13	0	0.305	0	0	0
1.619	-1.637808	84.565575	2.908489	0.203414	0	-0.326476	2.00E-06	0.678211	0	0	0	0	-0.13	0	0.305	0	0	0
1.62	-1.402809	85.599701	2.908489	0.203414	0	-0.327132	1.00E-06	0.647167	0	0	0	0	-0.13	0	0.305	0	0	0
1.621	-1.402809	85.599701	2.751707	0.203066	0	-0.327848	1.00E-06	0.647167	1.00E-06	0	0	0	-0.13	0	0.305	0	0	0
1.622	-1.322794	85.2537	2.751585	0.204064	0	-0.327848	0.00E+00	0.633603	1.00E-06	0	0	0	-0.13	0	0.305	0	0	0
1.623	-1.322794	85.2537	2.595005	0.203324	0	-0.327848	1.00E-06	0.625394	0	0	0	0	-0.13	0	0.305	0	0	0
1.624	-1.322794	85.085136	2.595005	0.204842	0	-0.327614	1.00E-06	0.625394	0	0	0	0	-0.13	0	0.305	0	0	0
1.625	-1.322794	83.725464	2.751787	0.204842	0	-0.327614	3.00E-06	0.625394	0.00E+00	0	0	0	-0.13	0	0.305	0	0	0
1.626	-1.635643	83.725464	2.908369	0.204842	0	-0.327614	3.00E-06	0.750031	1.00E-06	0	0	0	-0.13	0	0.305	0	0	0
1.627	-1.635643	84.053329	2.98678	0.204528	0	-0.327454	3.00E-06	0.618923	0.00E+00	0	0	0	-0.13	0	0.305	0	0	0
1.628	-1.634197	85.078964	2.98678	0.204528	0	-0.327454	2.00E-06	0.750031	1.00E-06	0	0	0	-0.13	0	0.305	0	0	0
1.629	-1.479218	85.431534	3.064989	0.204674	0	-0.325282	2.00E-06	0.658511	0.00E+00	0	0	0	-0.13	0	0.305	0	0	0
1.63	-1.326403	85.431534	3.064989	0.204674	0	-0.325014	2.00E-06	0.777719	1.00E-06	0	0	0	-0.13	0	0.305	0	0	0
1.631	-1.479218	86.456024	3.064989	0.202941	0	-0.323933	0.00E+00	0.777719	1.00E-06	0	0	0	-0.13	0	0.305	0	0	0
1.632	-2.032112	84.565575	2.595045	0.202524	0	-0.323933	1.00E-06	0.777719	1.00E-06	0	0	0	-0.13	0	0.305	0	0	0
1.633	-2.343515	84.565575	2.516474	0.202524	0	-0.327399	1.00E-06	0.828397	1.00E-06	0	0	0	-0.13	0	0.305	0	0	0
1.634	-2.343515	84.565575	2.203234	0.202524	0	-0.327399	2.00E-06	0.80089	0	0	0	0	-0.13	0	0.305	0	0	0
1.635	-1.951374	85.421478	2.203234	0.203983	0	-0.329629	2.00E-06	0.80089	0	0	0	0	-0.13	0	0.305	0	0	0
1.636	-1.714935	85.421478	2.673336	0.206313	0	-0.327779	2.00E-06	0.750208	1.00E-06	0	0	0	-0.13	0	0.305	0	0	0
1.637	-1.7171	85.421478	2.673336	0.205767	0	-0.329453	2.00E-06	0.750208	2.00E-06	0	0	0	-0.13	0	0.305	0	0	0
1.638	-1.7171	85.074722	2.673336	0.205767	0	-0.329111	1.00E-06	0.694944	2.00E-06	0	0	0	-0.13	0	0.305	0	0	0
1.639	-2.574903	85.94529	2.751867	0.205449	0	-0.329111	2.00E-06	0.694944	1.00E-06	0	0	0	-0.13	0	0.305	0	0	0
1.64	-2.574903	87.157249	2.908409	0.205224	0	-0.325417	2.00E-06	0.694944	1.00E-06	0	0	0	-0.13	0	0.305	0	0	0
1.641	-2.499941	87.157249	3.1434	0.205224	0	-0.325417	2.00E-06	0.789022	1.00E-06	0	0	0	-0.13	0	0.305	0	0	0
1.642	-2.343515	87.146835	2.908409	0.204208	0	-0.325417	2.00E-06	0.789022	1.00E-06	0	0	0	-0.13	0	0.305	0	0	0
1.643	-2.262777	87.146835	3.064949	0.204208	0	-0.32657	2.00E-06	0.783129	1.00E-06	0	0	0	-0.13	0	0.305	0	0	0
1.644	-1.952097	86.108826	2.830078	0.204208	0	-0.327917	0.00E+00	0.783129	1.00E-06	0	0	0	-0.13	0	0.305	0	0	0
1.645	-1.952097	86.805099	3.064949	0.202923	0	-0.327917	0	0.772558	1.00E-06	0	0	0	-0.13	0	0.305	0	0	0
